<svg width="16" height="18" viewBox="0 0 16 18" fill="none" xmlns="http://www.w3.org/2000/svg">
<path d="M8 11C9.10453 11 10 10.1046 10 9C10 7.8954 9.10453 7 8 7C6.8954 7 6 7.8954 6 9C6 10.1046 6.8954 11 8 11Z" stroke="white" stroke-width="1.5" stroke-linecap="round" stroke-linejoin="round"/>
<path d="M5.9628 14.8969L6.41956 15.9485C6.55538 16.2614 6.77694 16.5274 7.05743 16.7141C7.338 16.9007 7.66538 17.0001 7.99996 17C8.33461 17.0001 8.66199 16.9007 8.94248 16.7141C9.22305 16.5274 9.44461 16.2614 9.58044 15.9485L10.0372 14.8969C10.1998 14.5238 10.4733 14.2127 10.8187 14.008C11.1663 13.8027 11.5684 13.7153 11.9675 13.7582L13.0851 13.88C13.4178 13.916 13.7536 13.8525 14.0516 13.697C14.3497 13.5417 14.5974 13.301 14.7646 13.0045C14.932 12.708 15.0117 12.3682 14.9941 12.0263C14.9765 11.6844 14.8624 11.355 14.6655 11.0782L14.0039 10.1475C13.7683 9.81368 13.6424 9.41184 13.6444 9C13.6443 8.58928 13.7714 8.18912 14.0073 7.85688L14.6691 6.92622C14.8658 6.6494 14.98 6.32006 14.9976 5.97814C15.0152 5.63622 14.9354 5.29643 14.768 5C14.6008 4.70338 14.3532 4.46279 14.0551 4.30738C13.757 4.15198 13.4213 4.08842 13.0886 4.12445L11.9711 4.24622C11.5719 4.28913 11.1698 4.2017 10.8222 3.99645C10.4761 3.7906 10.2025 3.47789 10.0407 3.10311L9.58044 2.05155C9.44461 1.73854 9.22305 1.47258 8.94248 1.28592C8.66199 1.09926 8.33461 0.999944 7.99996 1C7.66538 0.999944 7.338 1.09926 7.05743 1.28592C6.77694 1.47258 6.55538 1.73854 6.41956 2.05155L5.9628 3.10311C5.80097 3.47789 5.52739 3.7906 5.18127 3.99645C4.83366 4.2017 4.43153 4.28913 4.03242 4.24622L2.91137 4.12445C2.57869 4.08842 2.24296 4.15198 1.94486 4.30738C1.64677 4.46279 1.39912 4.70338 1.23195 5C1.06456 5.29643 0.984811 5.63622 1.00239 5.97814C1.01996 6.32006 1.13409 6.6494 1.33094 6.92622L1.99263 7.85688C2.22861 8.18912 2.35568 8.58928 2.35561 9C2.35568 9.41072 2.22861 9.81096 1.99263 10.1431L1.33094 11.0738C1.13409 11.3506 1.01996 11.6799 1.00239 12.0218C0.984811 12.3638 1.06456 12.7036 1.23195 13C1.39929 13.2965 1.64696 13.537 1.94501 13.6923C2.24307 13.8477 2.57872 13.9114 2.91137 13.8755L4.02895 13.7538C4.42806 13.7109 4.83018 13.7983 5.1778 14.0035C5.52521 14.2088 5.80006 14.5216 5.9628 14.8969Z" stroke="white" stroke-width="1.5" stroke-linecap="round" stroke-linejoin="round"/>
</svg>
