<svg width="20" height="20" viewBox="0 0 20 20" fill="none" xmlns="http://www.w3.org/2000/svg">
<path d="M14.5 8.99981L10.5 4.99981M1.5 18.5001L4.88437 18.1241C5.29786 18.0781 5.5046 18.0551 5.69785 17.9926C5.86929 17.9371 6.03245 17.8587 6.18289 17.7595C6.35245 17.6476 6.49954 17.5006 6.79373 17.2064L17.5 5.99981C18.6046 4.89524 18.6046 3.10438 17.5 1.99981C16.3954 0.895244 14.6046 0.895244 13.5 1.99981L2.79373 13.2064C2.49955 13.5006 2.35245 13.6476 2.24064 13.8172C2.14143 13.9677 2.06301 14.1308 2.00751 14.3023C1.94496 14.4955 1.92198 14.7022 1.87604 15.1157L1.5 18.5001Z" stroke="white" stroke-width="2" stroke-linecap="round" stroke-linejoin="round"/>
</svg>
