<svg width="22" height="22" viewBox="0 0 22 22" fill="none" xmlns="http://www.w3.org/2000/svg">
<path fill-rule="evenodd" clip-rule="evenodd" d="M10.1403 14.7729C10.1403 15.2161 10.5168 15.5837 10.9961 15.5837C11.4753 15.5837 11.8519 15.2161 11.8519 14.7729C11.8519 14.3297 11.4753 13.9622 10.9961 13.9622C10.5168 13.9622 10.1403 14.3297 10.1403 14.7729ZM11.8519 11.8651C11.8519 11.5624 11.9888 11.3787 12.4339 11.0976C12.7876 10.8706 13.7461 10.2545 13.7461 9.02214C13.7461 7.58444 12.5137 6.41699 10.9961 6.41699C9.47846 6.41699 8.24609 7.58444 8.24609 9.02214C8.24609 9.46534 8.63406 9.83287 9.1019 9.83287C9.56975 9.83287 9.95771 9.46534 9.95771 9.02214C9.95771 8.48165 10.4256 8.03845 10.9961 8.03845C11.5666 8.03845 12.0345 8.48165 12.0345 9.02214C12.0345 9.30319 11.8975 9.48696 11.4753 9.7572L11.4621 9.76583C11.0873 10.0097 10.1403 10.6261 10.1403 11.8651V12.0921C10.1403 12.5353 10.5283 12.9028 10.9961 12.9028C11.4639 12.9028 11.8519 12.5353 11.8519 12.0921V11.8651Z" fill="black" fill-opacity="0.3"/>
<circle cx="10.9974" cy="11.0003" r="9.23333" stroke="black" stroke-opacity="0.3" stroke-width="1.7"/>
</svg>
