<?xml version="1.0" encoding="UTF-8"?>
<svg xmlns="http://www.w3.org/2000/svg" version="1.1" viewBox="0 0 400 400">
  <!-- Generator: Adobe Illustrator 29.4.0, SVG Export Plug-In . SVG Version: 2.1.0 Build 152)  -->
  <defs>
    <style>
      .st0 {
        fill: #fff;
      }

      .st1 {
        display: none;
      }
    </style>
  </defs>
  <g id="Layer_2" class="st1">
    <path class="st0" d="M110.2,61l162.1.2c20.3,0,36.8,16.5,36.8,36.8l.2,162.1c0,11.1-8.9,20.2-20.1,20.2-11.2,0-20.1-8.9-20.1-20.2v.3c-.1,0-.1-42-.1-42,0-32.9-39.8-49.3-63-26l-62.5,62.7c-7.8,7.9-20.5,7.9-28.3,0-7.9-7.9-7.9-20.5,0-28.3l62.7-62.5c23.3-23.2,6.9-63-26-63h-42s.3-.1.3-.1c-11.2,0-20.2-8.9-20.2-20.1,0-11.2,9.1-20.1,20.2-20.1Z"/>
  </g>
  <g id="Layer_1">
    <path class="st0" d="M83.7,57.4l210.8.3c26.4,0,47.8,21.4,47.9,47.9l.3,210.8c0,14.4-11.6,26.2-26.1,26.2-14.5,0-26.1-11.6-26.1-26.2l-.2.4v-54.6c0-42.7-51.7-64.1-81.9-33.8l-106.3,106.6c-10.2,10.2-26.6,10.2-36.8,0-10.3-10.2-10.2-26.6,0-36.8l106.6-106.3c30.3-30.2,8.9-81.9-33.8-81.9h-54.6s.4-.2.4-.2c-14.6,0-26.2-11.6-26.2-26.1,0-14.5,11.8-26.1,26.2-26.1Z"/>
  </g>
</svg>