<svg width="20" height="20" viewBox="0 0 20 20" fill="none" xmlns="http://www.w3.org/2000/svg">
<path d="M19.67 4.95039C19.03 2.78039 17.22 0.970392 15.05 0.330392C13.4 -0.149608 12.26 -0.109608 11.47 0.480392C10.52 1.19039 10.41 2.47039 10.41 3.38039V5.87039C10.41 8.33039 11.53 9.58039 13.73 9.58039H16.6C17.5 9.58039 18.79 9.47039 19.5 8.52039C20.11 7.74039 20.16 6.60039 19.67 4.95039Z" fill="black"/>
<path d="M16.91 11.3601C16.65 11.0601 16.27 10.8902 15.88 10.8902H12.3C10.54 10.8902 9.11002 9.46015 9.11002 7.70015V4.12015C9.11002 3.73015 8.94002 3.35015 8.64002 3.09015C8.35002 2.83015 7.95002 2.71015 7.57002 2.76015C5.22002 3.06015 3.06002 4.35015 1.65002 6.29015C0.230021 8.24015 -0.28998 10.6201 0.16002 13.0001C0.81002 16.4401 3.56002 19.1902 7.01002 19.8402C7.56002 19.9502 8.11002 20.0002 8.66002 20.0002C10.47 20.0002 12.22 19.4402 13.71 18.3502C15.65 16.9402 16.94 14.7801 17.24 12.4302C17.29 12.0402 17.17 11.6501 16.91 11.3601Z" fill="black"/>
</svg>
