<svg width="24" height="24" viewBox="0 0 24 24" fill="none" xmlns="http://www.w3.org/2000/svg">
<path d="M21.5589 10.7405L20.1989 9.16055C19.9389 8.86055 19.7289 8.30055 19.7289 7.90055V6.20055C19.7289 5.14055 18.8589 4.27055 17.7989 4.27055H16.0989C15.7089 4.27055 15.1389 4.06055 14.8389 3.80055L13.2589 2.44055C12.5689 1.85055 11.4389 1.85055 10.7389 2.44055L9.16891 3.81055C8.86891 4.06055 8.29891 4.27055 7.90891 4.27055H6.17891C5.11891 4.27055 4.24891 5.14055 4.24891 6.20055V7.91055C4.24891 8.30055 4.03891 8.86055 3.78891 9.16055L2.43891 10.7505C1.85891 11.4405 1.85891 12.5605 2.43891 13.2505L3.78891 14.8405C4.03891 15.1405 4.24891 15.7005 4.24891 16.0905V17.8005C4.24891 18.8605 5.11891 19.7305 6.17891 19.7305H7.90891C8.29891 19.7305 8.86891 19.9405 9.16891 20.2005L10.7489 21.5605C11.4389 22.1505 12.5689 22.1505 13.2689 21.5605L14.8489 20.2005C15.1489 19.9405 15.7089 19.7305 16.1089 19.7305H17.8089C18.8689 19.7305 19.7389 18.8605 19.7389 17.8005V16.1005C19.7389 15.7105 19.9489 15.1405 20.2089 14.8405L21.5689 13.2605C22.1489 12.5705 22.1489 11.4305 21.5589 10.7405ZM16.1589 10.1105L11.3289 14.9405C11.1889 15.0805 10.9989 15.1605 10.7989 15.1605C10.5989 15.1605 10.4089 15.0805 10.2689 14.9405L7.84891 12.5205C7.55891 12.2305 7.55891 11.7505 7.84891 11.4605C8.13891 11.1705 8.61891 11.1705 8.90891 11.4605L10.7989 13.3505L15.0989 9.05055C15.3889 8.76055 15.8689 8.76055 16.1589 9.05055C16.4489 9.34055 16.4489 9.82055 16.1589 10.1105Z" fill="black"/>
</svg>
