<svg width="20" height="20" viewBox="0 0 20 20" fill="none" xmlns="http://www.w3.org/2000/svg">
<path d="M9.5 0C14.7467 0 19 4.25329 19 9.5C19 14.7467 14.7467 19 9.5 19C4.25329 19 0 14.7467 0 9.5C0 4.25329 4.25329 0 9.5 0ZM9.5 5C7.01472 5 5 7.01472 5 9.5C5 11.9853 7.01472 14 9.5 14C11.9853 14 14 11.9853 14 9.5C14 7.01472 11.9853 5 9.5 5Z" fill="black"/>
<path d="M19.2986 19.9996C19.1186 19.9996 18.9386 19.9296 18.8086 19.7996L16.9486 17.9396C16.6786 17.6696 16.6786 17.2296 16.9486 16.9496C17.2186 16.6796 17.6586 16.6796 17.9386 16.9496L19.7986 18.8096C20.0686 19.0796 20.0686 19.5196 19.7986 19.7996C19.6586 19.9296 19.4786 19.9996 19.2986 19.9996Z" fill="black"/>
</svg>
