<svg width="227" height="25" viewBox="0 0 227 25" fill="none" xmlns="http://www.w3.org/2000/svg">
<path d="M121.726 0.983398H125.553L137.21 16.9413V0.983398H141.215V23.5265H137.268L125.701 7.68762V23.5265H121.726V0.983398Z" fill="#808080"/>
<path d="M144.205 15.3081V0.980957H148.445V14.8634C148.445 17.6801 149.661 20.2315 153.964 20.2315C158.267 20.2315 159.48 17.6801 159.48 14.8634V0.980957H163.752V15.3081C163.752 20.6177 160.994 24 153.964 24C146.934 24 144.205 20.5592 144.205 15.3081Z" fill="#808080"/>
<path d="M189.108 0.983398H199.044C203.967 0.983398 206.963 3.29681 206.963 7.4789C206.963 11.661 203.731 13.7969 199.015 13.7969H198.361L207.943 23.5265H202.543L193.348 13.9159V23.5265H189.108V0.983398ZM198.808 10.2078C201.002 10.2078 202.485 9.28906 202.485 7.4789C202.485 5.55171 200.942 4.69149 198.57 4.69149H193.35V10.2078H198.808Z" fill="#808080"/>
<path d="M92.7225 0.456055V4.05297V16.0511C92.7225 18.661 91.3279 20.2332 88.3337 20.2332C85.5463 20.2332 84.2706 18.7508 83.9136 16.3184H79.6106C79.9071 21.1227 82.7842 23.9998 88.3317 23.9998C93.8793 23.9998 96.9632 20.8847 96.9632 16.4061V0.456055H92.7225Z" fill="#808080"/>
<path d="M216.045 8.56734L210.652 0.98925L205.656 0.983398L213.999 12.3769L216.045 8.56734Z" fill="#808080"/>
<path d="M222.044 0.98925L217.144 10.1083L217.14 10.1025L215.105 13.8866L215.109 13.8925L209.932 23.5265H214.557L226.557 0.983398L222.044 0.98925Z" fill="#808080"/>
<path d="M177.581 0.983398H173.105L163.855 23.5148H168.48L170.555 18.2365H178.321L176.85 14.4718H172.038L175.36 6.02375L178.68 14.4718H178.664L180.42 18.968L182.206 23.5148H186.831L177.581 0.983398Z" fill="#808080"/>
<path d="M111.068 0.983398H106.591L97.3416 23.5148H101.966L103.447 19.7462L103.437 19.7423L105.528 14.4718H105.524L108.844 6.02375L112.164 14.4718H107.346L105.852 18.2365H113.617L115.693 23.5148H120.318L111.068 0.983398Z" fill="#808080"/>
<path d="M7.71268 5.24269H0V1.47607H19.6348V5.24269H11.9533V24.0192H7.71268V5.24269Z" fill="#808080"/>
<path d="M50.1909 16.7219H54.5213C55.2625 19.5093 56.8951 20.9644 60.6617 20.9644C63.9251 20.9644 65.823 19.9267 65.823 18.1165C65.823 16.7511 64.8731 15.8909 62.0272 15.1204L56.4504 13.6067C52.951 12.6568 51.1701 10.7296 51.1701 7.70422C51.1701 3.4324 54.9367 1 60.2755 1C66.0883 1 69.4414 3.9064 69.6482 8.53323H65.3471C65.0213 5.89406 63.2404 4.52864 60.1273 4.52864C57.4277 4.52864 55.559 5.59562 55.559 7.37652C55.559 8.65221 56.4777 9.4227 58.7326 10.0157L63.9232 11.4104C67.6898 12.3896 70.2119 14.11 70.2119 17.7576C70.2119 21.9397 66.8003 24.4911 60.572 24.4911C54.3438 24.4911 50.6357 21.5555 50.1909 16.7199V16.7219Z" fill="#808080"/>
<path d="M48.7005 1.47607H44.4814V24.0192H48.7005V1.47607Z" fill="#808080"/>
<path d="M35.655 10.5815H26.3175V1.47607H22.0768V24.0192H26.3175V14.3501H35.655V10.5815Z" fill="#808080"/>
<path d="M37.352 1.47607V10.5815H37.3442V14.3501H37.352V24.0192H41.5927V1.47607H37.352Z" fill="#808080"/>
</svg>
