<svg width="68" height="33" viewBox="0 0 68 33" fill="none" xmlns="http://www.w3.org/2000/svg">
<g clip-path="url(#clip0_1_943)">
<path d="M34 2.5401C38.413 2.5401 42.6882 2.95181 46.7063 3.76464C50.5412 4.54043 53.9694 5.64325 56.8966 7.04348C59.6632 8.36645 61.8974 9.9392 63.3582 11.5913C64.7117 13.1217 65.3982 14.6924 65.3982 16.2609C65.3982 17.8294 64.7117 19.4 63.3582 20.9304C61.8974 22.5825 59.6632 24.1553 56.8966 25.4783C53.9694 26.8774 50.5412 27.9813 46.7063 28.7571C42.6882 29.5699 38.413 29.9816 34 29.9816C29.587 29.9816 25.3118 29.5699 21.2937 28.7571C17.4588 27.9813 14.0306 26.8785 11.1034 25.4783C8.33678 24.1553 6.10265 22.5825 4.64179 20.9304C3.28829 19.4 2.60179 17.8294 2.60179 16.2609C2.60179 14.6924 3.28829 13.1217 4.64179 11.5913C6.10265 9.9392 8.33678 8.36645 11.1034 7.04348C14.0306 5.64325 17.4588 4.54043 21.2937 3.76464C25.3118 2.95181 29.587 2.5401 34 2.5401ZM34 0C15.2225 0 0 7.28056 0 16.2609C0 25.2412 15.2225 32.5217 34 32.5217C52.7775 32.5217 68 25.2412 68 16.2609C68 7.28056 52.7775 0 34 0Z" fill="#808080"/>
<path d="M17.3395 11.7986H12.6413V9.55908H24.6047V11.7986H19.9239V22.9613H17.3395V11.7986Z" fill="#808080"/>
<path d="M43.2196 18.6244H45.8582C46.3105 20.2818 47.3039 21.1465 49.5988 21.1465C51.5867 21.1465 52.7428 20.5295 52.7428 19.4531C52.7428 18.6414 52.1648 18.1302 50.4295 17.6719L47.0317 16.7723C44.8995 16.2082 43.815 15.0619 43.815 13.2627C43.815 10.7237 46.1098 9.27686 49.3624 9.27686C52.9044 9.27686 54.9466 11.0052 55.0724 13.7559H52.4522C52.2537 12.1863 51.1692 11.3756 49.2713 11.3756C47.6271 11.3756 46.4883 12.0106 46.4883 13.069C46.4883 13.8268 47.0491 14.2861 48.4221 14.6386L51.5846 15.4673C53.8794 16.0494 55.4151 17.0718 55.4151 19.2415C55.4151 21.7276 53.3372 23.2442 49.5424 23.2442C45.7476 23.2442 43.4885 21.4979 43.2174 18.6234L43.2196 18.6244Z" fill="#808080"/>
<path d="M42.3119 9.55908H39.7415V22.9623H42.3119V9.55908Z" fill="#808080"/>
<path d="M34.3633 14.9737H28.675V9.55908H26.0916V22.9623H28.675V17.2132H34.3633V14.9737Z" fill="#808080"/>
<path d="M35.3979 9.55908V14.9737H35.3925V17.2132H35.3979V22.9623H37.9824V9.55908H35.3979Z" fill="#808080"/>
</g>
<defs>
<clipPath id="clip0_1_943">
<rect width="68" height="32.5217" fill="white"/>
</clipPath>
</defs>
</svg>
